# xmcd
#
# Track frame offsets: 
#        150
#        17940
#        34395
#        53123
#        67604
#        78871
#        91247
#        104292
#        120384
#        137612
#        149501
#        171131
#        185281
#        200482
#        215834
#        229531
#        242471
#        255415
#
# Disc length: 3660 seconds
#
# Revision: 0
# Processed by: cddbd v1.5.2PL0 Copyright (c) Steve Scherf et al.
# Submitted via: ExactAudioCopy v1.0b3
#
DISCID=ed0e4a12
DTITLE=Various Artist - Moods For Blues - Disc 1
DYEAR=1900
DGENRE=Blues
TTITLE0=Nina Simone - Blues For Mama
TTITLE1=Stevie Ray Vaughan and Double Trouble - Pride And Joy
TTITLE2=The Electric Flag - Killing Floor 
TTITLE3=Chicken Shack - I'd Rather Be Blind
TTITLE4=Bukka White - Give Me An Old, Old Lady
TTITLE5=Big Joe Williams - Baby Please Don't Go
TTITLE6=Arthur "Big Boy" Crudup - That's All Right
TTITLE7=Muddy Waters - The Blues Had A Baby And They Named It Rock And
TTITLE7=Roll
TTITLE8=Fleetwood Mac - Need Your Love So Bad
TTITLE9=Taj Mahal - Lovin' In My Baby's Eyes
TTITLE10=Willie Dixon - I'm Your Hoochie Coochie Man
TTITLE11=Bessie Smith And Her Band - Muddy Water (A Mississippi Moan)
TTITLE12=Blind Willie Johnson - Motherless Children
TTITLE13=Johnny Winter - Johnny B. Goode (Live)
TTITLE14=Otis Spann - Got My Mojo Workin'
TTITLE15=Memphis Minnie - Bumble Bee Blues
TTITLE16=Big Maceo Merriweather - Worried Life Blues
TTITLE17=Jimmy Witherspoon with Jay McShann and His Band - Confessin' Th
TTITLE17=e Blues
EXTD=
EXTT0=
EXTT1=
EXTT2=
EXTT3=
EXTT4=
EXTT5=
EXTT6=
EXTT7=
EXTT8=
EXTT9=
EXTT10=
EXTT11=
EXTT12=
EXTT13=
EXTT14=
EXTT15=
EXTT16=
EXTT17=
PLAYORDER=
